<svg width="26" height="26" viewbox="0 0 26 26" fill="none" xmlns="http://www.w3.org/2000/svg">
<path d="M13.55 20.8453L19.85 24.8453C20.6625 25.3578 21.6625 24.5953 21.425 23.6578L19.6 16.4828C19.5506 16.284 19.5585 16.0752 19.6226 15.8806C19.6868 15.686 19.8046 15.5134 19.9625 15.3828L25.6125 10.6703C26.35 10.0578 25.975 8.82034 25.0125 8.75784L17.6375 8.28284C17.4363 8.27113 17.2428 8.20106 17.0808 8.08119C16.9187 7.96132 16.7951 7.79684 16.725 7.60784L13.975 0.682843C13.9022 0.482722 13.7696 0.309848 13.5952 0.187688C13.4207 0.0655277 13.2129 0 13 0C12.787 0 12.5793 0.0655277 12.4048 0.187688C12.2304 0.309848 12.0978 0.482722 12.025 0.682843L9.27499 7.60784C9.20491 7.79684 9.08128 7.96132 8.91923 8.08119C8.75718 8.20106 8.56372 8.27113 8.36249 8.28284L0.987495 8.75784C0.0249946 8.82034 -0.350005 10.0578 0.387495 10.6703L6.0375 15.3828C6.19541 15.5134 6.31323 15.686 6.37736 15.8806C6.4415 16.0752 6.44934 16.284 6.39999 16.4828L4.71249 23.1328C4.42499 24.2578 5.62499 25.1703 6.58749 24.5578L12.45 20.8453C12.6144 20.7408 12.8052 20.6853 13 20.6853C13.1948 20.6853 13.3856 20.7408 13.55 20.8453Z" fill="#EBA83A"/>
</svg>
