<svg id="telegram" width="33" height="32" viewBox="0 0 33 32" fill="none" xmlns="http://www.w3.org/2000/svg">
<path d="M16.5 2.66675C9.14002 2.66675 3.16669 8.64008 3.16669 16.0001C3.16669 23.3601 9.14002 29.3334 16.5 29.3334C23.86 29.3334 29.8334 23.3601 29.8334 16.0001C29.8334 8.64008 23.86 2.66675 16.5 2.66675ZM22.6867 11.7334C22.4867 13.8401 21.62 18.9601 21.18 21.3201C20.9934 22.3201 20.62 22.6534 20.2734 22.6934C19.5 22.7601 18.9134 22.1867 18.1667 21.6934C16.9934 20.9201 16.3267 20.4401 15.1934 19.6934C13.8734 18.8267 14.7267 18.3467 15.4867 17.5734C15.6867 17.3734 19.1 14.2667 19.1667 13.9867C19.1759 13.9443 19.1747 13.9003 19.1631 13.8585C19.1515 13.8167 19.1298 13.7783 19.1 13.7467C19.02 13.6801 18.9134 13.7067 18.82 13.7201C18.7 13.7467 16.8334 14.9867 13.1934 17.4401C12.66 17.8001 12.18 17.9867 11.7534 17.9734C11.2734 17.9601 10.3667 17.7067 9.68669 17.4801C8.84669 17.2134 8.19335 17.0667 8.24669 16.6001C8.27335 16.3601 8.60669 16.1201 9.23335 15.8667C13.1267 14.1734 15.7134 13.0534 17.0067 12.5201C20.7134 10.9734 21.4734 10.7067 21.98 10.7067C22.0867 10.7067 22.34 10.7334 22.5 10.8667C22.6334 10.9734 22.6734 11.1201 22.6867 11.2267C22.6734 11.3067 22.7 11.5467 22.6867 11.7334Z" fill="#094067"/>
</svg>
