<svg id="instagram" width="33" height="32" viewBox="0 0 33 32" fill="none" xmlns="http://www.w3.org/2000/svg">
<path d="M16.5 2.66675C20.1227 2.66675 20.5747 2.68008 21.996 2.74675C23.416 2.81341 24.3827 3.03608 25.2334 3.36675C26.1134 3.70541 26.8547 4.16408 27.596 4.90408C28.274 5.57061 28.7986 6.37687 29.1334 7.26675C29.4627 8.11608 29.6867 9.08408 29.7534 10.5041C29.816 11.9254 29.8334 12.3774 29.8334 16.0001C29.8334 19.6227 29.82 20.0747 29.7534 21.4961C29.6867 22.9161 29.4627 23.8827 29.1334 24.7334C28.7996 25.6238 28.2748 26.4302 27.596 27.0961C26.9293 27.7738 26.1231 28.2984 25.2334 28.6334C24.384 28.9627 23.416 29.1867 21.996 29.2534C20.5747 29.3161 20.1227 29.3334 16.5 29.3334C12.8774 29.3334 12.4254 29.3201 11.004 29.2534C9.58402 29.1867 8.61735 28.9627 7.76669 28.6334C6.87645 28.2994 6.07006 27.7747 5.40402 27.0961C4.7259 26.4297 4.20126 25.6234 3.86669 24.7334C3.53602 23.8841 3.31335 22.9161 3.24669 21.4961C3.18402 20.0747 3.16669 19.6227 3.16669 16.0001C3.16669 12.3774 3.18002 11.9254 3.24669 10.5041C3.31335 9.08275 3.53602 8.11741 3.86669 7.26675C4.20034 6.37632 4.72509 5.56984 5.40402 4.90408C6.07025 4.22572 6.87659 3.70105 7.76669 3.36675C8.61735 3.03608 9.58269 2.81341 11.004 2.74675C12.4254 2.68408 12.8774 2.66675 16.5 2.66675ZM16.5 9.33341C14.7319 9.33341 13.0362 10.0358 11.786 11.286C10.5357 12.5363 9.83335 14.232 9.83335 16.0001C9.83335 17.7682 10.5357 19.4639 11.786 20.7141C13.0362 21.9644 14.7319 22.6667 16.5 22.6667C18.2681 22.6667 19.9638 21.9644 21.2141 20.7141C22.4643 19.4639 23.1667 17.7682 23.1667 16.0001C23.1667 14.232 22.4643 12.5363 21.2141 11.286C19.9638 10.0358 18.2681 9.33341 16.5 9.33341ZM25.1667 9.00008C25.1667 8.55805 24.9911 8.13413 24.6785 7.82157C24.366 7.50901 23.942 7.33341 23.5 7.33341C23.058 7.33341 22.6341 7.50901 22.3215 7.82157C22.0089 8.13413 21.8334 8.55805 21.8334 9.00008C21.8334 9.44211 22.0089 9.86603 22.3215 10.1786C22.6341 10.4912 23.058 10.6667 23.5 10.6667C23.942 10.6667 24.366 10.4912 24.6785 10.1786C24.9911 9.86603 25.1667 9.44211 25.1667 9.00008ZM16.5 12.0001C17.5609 12.0001 18.5783 12.4215 19.3284 13.1717C20.0786 13.9218 20.5 14.9392 20.5 16.0001C20.5 17.0609 20.0786 18.0784 19.3284 18.8285C18.5783 19.5787 17.5609 20.0001 16.5 20.0001C15.4392 20.0001 14.4217 19.5787 13.6716 18.8285C12.9214 18.0784 12.5 17.0609 12.5 16.0001C12.5 14.9392 12.9214 13.9218 13.6716 13.1717C14.4217 12.4215 15.4392 12.0001 16.5 12.0001Z" fill="#094067"/>
</svg>
