<svg id="whatsapp" width="33" height="32" viewBox="0 0 33 32" fill="none" xmlns="http://www.w3.org/2000/svg">
<path d="M3.17198 29.3334L4.97464 22.7094C3.78683 20.6732 3.16277 18.3574 3.16664 16.0001C3.16664 8.63608 9.13598 2.66675 16.5 2.66675C23.864 2.66675 29.8333 8.63608 29.8333 16.0001C29.8333 23.3641 23.864 29.3334 16.5 29.3334C14.1437 29.3372 11.8289 28.7136 9.79331 27.5267L3.17198 29.3334ZM11.688 9.74408C11.5158 9.75477 11.3475 9.80012 11.1933 9.87741C11.0487 9.95932 10.9166 10.0617 10.8013 10.1814C10.6413 10.3321 10.5506 10.4627 10.4533 10.5894C9.96053 11.2307 9.69546 12.018 9.69998 12.8267C9.70264 13.4801 9.87331 14.1161 10.14 14.7107C10.6853 15.9134 11.5826 17.1867 12.768 18.3667C13.0533 18.6507 13.332 18.9361 13.632 19.2014C15.1032 20.4967 16.8563 21.4308 18.752 21.9294L19.5106 22.0454C19.7573 22.0587 20.004 22.0401 20.252 22.0281C20.6403 22.008 21.0195 21.9029 21.3626 21.7201C21.5373 21.6301 21.7077 21.5323 21.8733 21.4267C21.8733 21.4267 21.9306 21.3894 22.04 21.3067C22.22 21.1734 22.3306 21.0787 22.48 20.9227C22.5906 20.8081 22.6866 20.6734 22.76 20.5201C22.864 20.3027 22.968 19.8881 23.0106 19.5427C23.0426 19.2787 23.0333 19.1347 23.0293 19.0454C23.024 18.9027 22.9053 18.7547 22.776 18.6921L22 18.3441C22 18.3441 20.84 17.8387 20.132 17.5161C20.0573 17.4835 19.9773 17.465 19.896 17.4614C19.8048 17.452 19.7126 17.4623 19.6256 17.4915C19.5387 17.5207 19.459 17.5682 19.392 17.6307V17.6281C19.3853 17.6281 19.296 17.7041 18.332 18.8721C18.2766 18.9464 18.2004 19.0026 18.113 19.0335C18.0257 19.0644 17.9311 19.0685 17.8413 19.0454C17.7544 19.0222 17.6693 18.9928 17.5866 18.9574C17.4213 18.8881 17.364 18.8614 17.2506 18.8121L17.244 18.8094C16.4812 18.4764 15.7749 18.0265 15.1506 17.4761C14.9826 17.3294 14.8266 17.1694 14.6666 17.0147C14.1421 16.5124 13.6849 15.9441 13.3066 15.3241L13.228 15.1974C13.1715 15.1123 13.1258 15.0205 13.092 14.9241C13.0413 14.7281 13.1733 14.5707 13.1733 14.5707C13.1733 14.5707 13.4973 14.2161 13.648 14.0241C13.7734 13.8645 13.8905 13.6985 13.9986 13.5267C14.156 13.2734 14.2053 13.0134 14.1226 12.8121C13.7493 11.9001 13.3626 10.9921 12.9653 10.0907C12.8866 9.91208 12.6533 9.78408 12.4413 9.75875C12.3693 9.75075 12.2973 9.74275 12.2253 9.73741C12.0463 9.72852 11.8668 9.73163 11.688 9.74408Z" fill="#094067"/>
</svg>
