<svg width="29" height="28" viewbox="0 0 29 28" fill="none" xmlns="http://www.w3.org/2000/svg">
<path d="M14.5568 22.3395L20.8568 26.3395C21.6693 26.852 22.6693 26.0895 22.4318 25.152L20.6068 17.977C20.5574 17.7781 20.5653 17.5693 20.6294 17.3747C20.6935 17.1801 20.8114 17.0076 20.9693 16.877L26.6193 12.1645C27.3568 11.552 26.9818 10.3145 26.0193 10.252L18.6443 9.77698C18.443 9.76528 18.2496 9.6952 18.0875 9.57533C17.9255 9.45546 17.8019 9.29098 17.7318 9.10198L14.9818 2.17698C14.909 1.97686 14.7764 1.80399 14.6019 1.68183C14.4275 1.55967 14.2197 1.49414 14.0068 1.49414C13.7938 1.49414 13.586 1.55967 13.4116 1.68183C13.2372 1.80399 13.1046 1.97686 13.0318 2.17698L10.2818 9.10198C10.2117 9.29098 10.0881 9.45546 9.92601 9.57533C9.76396 9.6952 9.5705 9.76528 9.36927 9.77698L1.99427 10.252C1.03177 10.3145 0.65677 11.552 1.39427 12.1645L7.04427 16.877C7.20219 17.0076 7.32 17.1801 7.38414 17.3747C7.44827 17.5693 7.45612 17.7781 7.40677 17.977L5.71927 24.627C5.43177 25.752 6.63177 26.6645 7.59427 26.052L13.4568 22.3395C13.6212 22.2349 13.812 22.1794 14.0068 22.1794C14.2016 22.1794 14.3924 22.2349 14.5568 22.3395V22.3395Z" stroke="#EBA83A" stroke-width="2" stroke-linecap="round" stroke-linejoin="round"/>
</svg>
